<?xml version="1.0" encoding="UTF-8"?>
<svg xmlns="http://www.w3.org/2000/svg" xmlns:xlink="http://www.w3.org/1999/xlink" viewBox="0 0 100 100" width="100px" height="100px">
<g id="surface76320155">
<path style=" stroke:none;fill-rule:nonzero;fill:rgb(0%,90.588236%,97.647059%);fill-opacity:1;" d="M 31.011719 17.988281 C 23.832031 17.988281 18.011719 23.808594 18.011719 30.988281 L 18.011719 69.988281 C 18.011719 77.167969 23.832031 82.988281 31.011719 82.988281 L 70.011719 82.988281 C 77.191406 82.988281 83.011719 77.167969 83.011719 69.988281 L 83.011719 30.988281 C 83.011719 23.808594 77.191406 17.988281 70.011719 17.988281 Z M 31.011719 19.988281 L 70.011719 19.988281 C 76.085938 19.988281 81.011719 24.914062 81.011719 30.988281 L 81.011719 69.988281 C 81.011719 76.0625 76.085938 80.988281 70.011719 80.988281 L 31.011719 80.988281 C 24.9375 80.988281 20.011719 76.0625 20.011719 69.988281 L 20.011719 30.988281 C 20.011719 24.914062 24.9375 19.988281 31.011719 19.988281 Z M 33.847656 22.988281 C 27.863281 22.988281 23.011719 27.839844 23.011719 33.824219 L 23.011719 67.148438 C 23.011719 73.136719 27.863281 77.988281 33.847656 77.988281 L 67.175781 77.988281 C 73.160156 77.988281 78.011719 73.136719 78.011719 67.148438 L 78.011719 48.488281 C 78.011719 48.210938 77.789062 47.988281 77.511719 47.988281 C 77.234375 47.988281 77.011719 48.210938 77.011719 48.488281 L 77.011719 67.148438 C 77.011719 72.582031 72.605469 76.988281 67.175781 76.988281 L 33.851562 76.988281 C 28.417969 76.988281 24.011719 72.582031 24.011719 67.148438 L 24.011719 33.824219 C 24.011719 28.390625 28.414062 23.988281 33.847656 23.988281 L 67.511719 23.988281 C 67.789062 23.988281 68.011719 23.765625 68.011719 23.488281 C 68.011719 23.210938 67.789062 22.988281 67.511719 22.988281 Z M 33.601562 36 C 32.585938 36 31.65625 36.339844 30.894531 36.898438 C 30.789062 36.941406 30.699219 37.015625 30.640625 37.109375 C 29.644531 37.957031 29 39.199219 29 40.597656 L 29 61.398438 C 29 62.800781 29.644531 64.042969 30.636719 64.886719 C 30.699219 64.996094 30.796875 65.078125 30.914062 65.117188 C 31.671875 65.667969 32.59375 66 33.601562 66 L 67.402344 66 C 68.671875 66 69.824219 65.480469 70.660156 64.640625 C 70.792969 64.578125 70.894531 64.457031 70.929688 64.3125 C 71.589844 63.515625 72 62.511719 72 61.398438 L 72 40.597656 C 72 39.488281 71.585938 38.480469 70.929688 37.683594 C 70.890625 37.558594 70.800781 37.449219 70.683594 37.386719 C 69.847656 36.535156 68.683594 36 67.402344 36 Z M 77.511719 36.566406 C 77.234375 36.566406 77.011719 36.789062 77.011719 37.066406 L 77.011719 39.066406 C 77.011719 39.34375 77.234375 39.566406 77.511719 39.566406 C 77.789062 39.566406 78.011719 39.34375 78.011719 39.066406 L 78.011719 37.066406 C 78.011719 36.789062 77.789062 36.566406 77.511719 36.566406 Z M 33.601562 37 L 67.402344 37 C 68.300781 37 69.109375 37.339844 69.742188 37.882812 L 58.371094 50.800781 C 58.324219 50.835938 58.289062 50.878906 58.257812 50.929688 L 55.882812 53.628906 C 53.050781 56.847656 48.035156 56.789062 45.277344 53.503906 L 43.128906 50.945312 C 43.097656 50.894531 43.0625 50.851562 43.019531 50.816406 C 43.015625 50.8125 43.015625 50.8125 43.015625 50.8125 L 31.820312 37.484375 C 32.347656 37.183594 32.949219 37 33.601562 37 Z M 31.019531 38.089844 L 42.035156 51.199219 L 31.035156 63.921875 C 30.394531 63.273438 30 62.386719 30 61.402344 L 30 40.601562 C 30 39.621094 30.390625 38.738281 31.019531 38.089844 Z M 70.414062 38.628906 C 70.78125 39.195312 71 39.871094 71 40.601562 L 71 61.402344 C 71 62.140625 70.777344 62.824219 70.398438 63.394531 L 59.359375 51.191406 Z M 77.511719 40.566406 C 77.234375 40.566406 77.011719 40.789062 77.011719 41.066406 L 77.011719 45.066406 C 77.011719 45.34375 77.234375 45.566406 77.511719 45.566406 C 77.789062 45.566406 78.011719 45.34375 78.011719 45.066406 L 78.011719 41.066406 C 78.011719 40.789062 77.789062 40.566406 77.511719 40.566406 Z M 58.695312 51.945312 L 69.722656 64.136719 C 69.09375 64.667969 68.289062 65 67.398438 65 L 33.597656 65 C 32.953125 65 32.359375 64.816406 31.835938 64.523438 L 42.683594 51.972656 L 44.511719 54.148438 C 47.652344 57.886719 53.40625 57.953125 56.632812 54.285156 Z M 58.695312 51.945312 "/>
</g>
</svg>
